<svg xmlns="http://www.w3.org/2000/svg" xmlns:xlink="http://www.w3.org/1999/xlink" version="1.1" baseProfile="tiny" id="codenode" x="0" y="0" viewBox="0 0 640 480" xml:space="preserve">
  <g id="Lt_Bracket" class="animated fadeInLeft">
    <path id="lt_x5F_smile" d="M33.8 304.7c0.4 0.4 0.7 1.1 0.7 1.8 0 0.4-0.2 0.7-0.4 1.1s-0.7 0.9-1.4 1.3c-4.6-3.2-8.9-7.2-12.9-11.4s-7.3-9.1-10.4-14.7c-3-5.4-5.2-11.4-7-18.2C0.9 258.1 0 250.7 0 242.7c0-8.4 0.9-16.1 2.5-23.1 1.8-7 4.1-13.2 7-18.8 3-5.5 6.4-10.7 10.4-15.2 3.9-4.5 8.2-8.6 12.7-12.3 0.7 0.5 1.3 1.1 1.4 1.4 0.2 0.4 0.4 0.7 0.4 1.3 0 0.4-0.2 1.1-0.7 1.6 -7 8-12 16.8-15.4 26.6 -3.2 9.7-5 20.4-5 32 0 14.7 1.6 27.5 4.6 38.6C20.9 286 26.5 295.8 33.8 304.7z"/>
    <path id="lt_x5F_mustache" d="M58.8 241.1c8.6 3.2 14.7 7.9 18.1 14.1 3.4 6.3 5 14.5 5 24.7 0 6.6-0.5 13.8-1.6 21.8s-2.5 16.8-4.3 26.6c-0.5 2.7-0.9 5.2-0.9 7.5 0 6.6 2 10.9 5.9 13.2 3.9 2.3 8.8 3.8 14.3 4.5 2.7 0.2 3.9 1.4 3.9 3.6 0 0.7-0.2 2.1-0.5 3.9 -5.4 0-10.7-0.4-15.7-1.1s-9.7-2-13.6-3.9c-3.9-2-7.2-4.8-9.5-8.2 -2.5-3.6-3.6-8.4-3.6-14.3 0-1.1 0-2.3 0.2-3.4s0.2-2.1 0.4-3c1.4-10.9 2.9-20.6 4.1-29.3 1.3-8.6 1.8-16.1 1.8-22.5 0-8.6-1.8-15.4-5.4-20.2 -3.6-4.8-10.4-7.9-20.2-8.8V237c10-0.9 16.6-3.9 20.2-8.9s5.4-11.8 5.4-20.7c0-6.6-0.5-14.1-1.8-22.9 -1.3-8.4-2.5-18.2-4.1-29 -0.2-0.9-0.4-2.1-0.4-3.4 -0.2-1.3-0.2-2.3-0.2-3 0-10 3.8-17 11.6-21.5 7.7-4.3 17.9-6.4 30.8-6.3 0.2 0.9 0.4 2.1 0.4 3.4 0 2.7-1.1 4.1-3.4 4.3 -2.9 0.4-5.4 0.9-7.9 1.6s-4.5 1.6-6.3 3c-1.8 1.3-3.2 3-4.3 5 -1.1 2.1-1.6 4.8-1.6 8.2 0 2.7 0.4 5.2 0.9 7.5 1.8 9.8 3.4 18.6 4.3 26.5 1.1 7.9 1.6 15 1.6 21.6 0 10.2-1.6 18.2-5 24.5s-9.3 10.9-18.1 14.1l0 0L58.8 241.1 58.8 241.1z"/>
  </g>
  <g id="Rt_Bracket" class="animated fadeInRight">
    <path id="rt_x5F_smile" d="M606.2 177.9c-0.4-0.4-0.7-1.1-0.7-1.8 0-0.4 0.2-0.7 0.4-1.1s0.7-0.9 1.4-1.3c4.6 3.2 8.9 7.2 12.9 11.4s7.3 9.1 10.4 14.7c3 5.4 5.2 11.4 7 18.2 1.6 6.6 2.5 14.1 2.5 22 0 8.4-0.9 16.1-2.5 23.1 -1.8 7-4.1 13.2-7 18.8 -3 5.5-6.4 10.7-10.4 15.2 -3.9 4.5-8.2 8.6-12.7 12.3 -0.7-0.5-1.3-1.1-1.4-1.4 -0.2-0.4-0.4-0.7-0.4-1.3 0-0.4 0.2-1.1 0.7-1.6 7-8 12-16.8 15.4-26.6 3.2-9.7 5-20.4 5-32 0-14.7-1.6-27.5-4.6-38.6C618.7 196.7 613.5 186.9 606.2 177.9z"/>
    <path id="rt_x5F_mustache" d="M581.2 241.4c-8.6-3.2-14.7-7.9-18.1-14.1 -3.4-6.3-5-14.5-5-24.7 0-6.6 0.5-13.8 1.6-21.8s2.5-16.8 4.3-26.6c0.5-2.7 0.9-5.2 0.9-7.5 0-6.6-2-10.9-5.9-13.2s-8.8-3.8-14.3-4.5c-2.7-0.2-3.9-1.4-3.9-3.6 0-0.7 0.2-2.1 0.5-3.9 5.4 0 10.7 0.4 15.7 1.1s9.7 2 13.6 3.9c3.9 1.9 7.2 4.8 9.5 8.2 2.5 3.6 3.6 8.4 3.6 14.3 0 1.1 0 2.3-0.2 3.4s-0.2 2.1-0.4 3c-1.4 10.9-2.9 20.6-4.1 29.3 -1.3 8.6-1.8 16.1-1.8 22.5 0 8.6 1.8 15.4 5.4 20.2s10.4 7.9 20.2 8.8v9.3c-10 0.9-16.6 3.9-20.2 8.9 -3.6 5-5.4 11.8-5.4 20.7 0 6.6 0.5 14.1 1.8 22.9s2.5 18.6 4.1 29.3c0.2 0.9 0.4 2.1 0.4 3.4 0.2 1.3 0.2 2.3 0.2 3 0 10-3.8 17-11.6 21.5 -7.7 4.3-17.9 6.4-30.8 6.3 -0.2-0.9-0.4-2.1-0.4-3.4 0-2.7 1.1-4.1 3.4-4.3 2.9-0.4 5.4-0.9 7.9-1.6s4.5-1.6 6.3-3c1.8-1.3 3.2-3 4.3-5 1.1-2.1 1.6-4.8 1.6-8.2 0-2.7-0.4-5.2-0.9-7.5 -1.8-9.8-3.4-18.6-4.3-26.5 -1.1-7.9-1.6-15-1.6-21.6 0-10.2 1.6-18.2 5-24.5 3.4-6.3 9.3-10.9 18.1-14.1v-0.4L581.2 241.4 581.2 241.4z"/>
  </g>
  <g id="node" class="animated fadeInUp">
    <path id="N" d="M122.1 251.8h23.2l47.7 73.1h0.4v-73.1H211v98.5h-22.4L140 274.7h-0.4v75.6h-17.5C122.1 350.3 122.1 251.8 122.1 251.8z"/>
    <path id="O_1_" d="M227.6 301.5c0-7.9 1.3-15 3.9-21.5 2.7-6.4 6.3-12 10.7-16.5 4.6-4.5 10-8 16.5-10.6 6.4-2.5 13.4-3.8 20.9-3.8 7.7-0.2 14.8 1.1 21.1 3.4s12 5.9 16.6 10.4 8.2 10 10.9 16.5 3.9 13.6 3.9 21.5c0 7.7-1.3 14.7-3.9 21.1 -2.7 6.3-6.3 11.8-10.9 16.3s-10.2 8-16.6 10.7 -13.4 3.9-21.1 3.9 -14.7-1.3-20.9-3.8c-6.4-2.5-11.8-5.9-16.5-10.4 -4.6-4.5-8.2-9.8-10.7-16.3C228.9 316.2 227.6 309.2 227.6 301.5zM245.9 300.3c0 5.4 0.9 10.2 2.5 14.7s3.9 8.2 7 11.6c3 3.2 6.4 5.7 10.7 7.7 4.1 1.8 8.8 2.9 13.8 2.9 5.2 0 9.7-0.9 13.9-2.9 4.1-1.8 7.7-4.5 10.7-7.7s5.2-7.2 7-11.6c1.6-4.5 2.5-9.3 2.5-14.7 0-5-0.9-9.5-2.5-13.8s-3.9-8-7-11.3 -6.6-5.7-10.7-7.5 -8.8-2.7-13.9-2.7 -9.7 0.9-13.8 2.7 -7.7 4.3-10.7 7.5 -5.2 7-7 11.3C246.8 290.8 245.9 295.4 245.9 300.3z"/>
    <path id="D_1_" d="M348.9 251.8h38.8c6.4 0 12.7 1.1 18.8 3 6.1 1.9 11.4 5 16.1 9.1 4.6 4.1 8.4 9.3 11.1 15.4s4.1 13.4 4.1 21.8 -1.6 15.7-4.8 22c-3.2 6.3-7.3 11.3-12.3 15.4s-10.7 7-16.8 9.1c-6.3 2-12.2 3-18.2 3h-36.8v-98.9h0V251.8zM379.5 334.4c5.5 0 10.7-0.7 15.6-2 4.8-1.3 9.1-3.2 12.7-5.9s6.4-6.1 8.6-10.4c2.1-4.3 3.2-9.3 3.2-15.4 0-5.9-0.9-11.1-2.9-15.4 -1.8-4.3-4.5-7.7-7.7-10.4s-7.2-4.6-11.6-5.9c-4.5-1.3-9.5-2-14.8-2h-16.1v66.9h13.1v0.5H379.5z"/>
    <path id="E_1_" d="M454.6 251.8h65.3v15.9h-47.7v24.1h45.2v15.9h-45.2v26.6h50.2v15.9h-67.8L454.6 251.8 454.6 251.8z"/>
  </g>
  <g id="code" class="animated fadeInDown">
    <path id="C" d="M189.7 156.1c-3.6-3.9-7.2-6.4-10.6-7.9 -3.4-1.3-6.8-2-10.2-2 -5.2 0-9.7 0.9-13.8 2.7s-7.7 4.3-10.7 7.5 -5.2 7-7 11.3c-1.6 4.3-2.5 8.9-2.5 13.8 0 5.4 0.9 10.2 2.5 14.7s3.9 8.2 7 11.6c3 3.2 6.4 5.7 10.7 7.7 4.1 1.8 8.8 2.9 13.8 2.9 3.9 0 7.9-0.9 11.6-2.9s7.3-5 10.6-9.1l14.5 10.4c-4.5 6.1-9.8 10.6-16.3 13.4 -6.4 2.9-13.2 4.1-20.4 4.1 -7.7 0-14.7-1.3-20.9-3.8 -6.4-2.5-11.8-5.9-16.5-10.4s-8.2-9.8-10.7-16.3c-2.7-6.3-3.9-13.2-3.9-21.1 0-7.9 1.3-15 3.9-21.5 2.7-6.4 6.3-12 10.7-16.5 4.6-4.5 10-8 16.5-10.6 6.4-2.5 13.4-3.8 20.9-3.8 6.6 0 12.9 1.3 18.6 3.6 5.7 2.3 11.1 6.4 15.9 12L189.7 156.1z"/>
    <path id="O" d="M219.2 186.4c-0.5-7.9 0.2-15 2.3-21.6s5.4-12.3 9.7-17.2c4.3-4.8 9.5-8.8 15.7-11.6 6.1-2.9 13.1-4.6 20.6-5.2 7.7-0.7 14.8 0 21.3 2 6.6 2 12.3 5 17.2 9.1 5 4.3 8.9 9.5 12 15.6 3 6.3 4.8 13.2 5.4 21.1 0.5 7.7-0.4 14.8-2.5 21.3s-5.4 12.2-9.7 17 -9.7 8.8-15.7 11.8c-6.3 3-13.2 4.8-20.7 5.4 -7.5 0.5-14.7-0.2-21.1-2.1 -6.4-2-12.2-5.2-17.2-9.3 -4.8-4.1-8.9-9.3-12-15.4C221.6 200.8 219.8 194 219.2 186.4zM237.5 183.9c0.4 5.4 1.4 10 3.4 14.5 2 4.3 4.5 8 7.7 11.1 3.2 3 7 5.4 11.1 7 4.3 1.6 8.9 2.1 13.9 1.8s9.7-1.6 13.8-3.8 7.3-5 10.2-8.4c2.7-3.4 4.8-7.5 6.1-12s1.8-9.5 1.4-14.7c-0.4-4.8-1.4-9.5-3.4-13.6s-4.5-7.7-7.7-10.7 -7-5.2-11.3-6.8c-4.3-1.4-8.9-2.1-14.1-1.8 -5 0.4-9.7 1.6-13.6 3.8 -3.9 2.1-7.3 4.8-10 8.2s-4.8 7.3-6.1 11.6C237.7 174.4 237.1 179 237.5 183.9z"/>
    <path id="D" d="M344.4 133.1h38.8c6.4 0 12.7 1.1 18.8 3s11.4 5 16.1 9.1c4.6 4.1 8.4 9.3 11.1 15.4 2.9 6.3 4.1 13.4 4.1 21.8s-1.6 15.7-4.8 22c-3.2 6.3-7.3 11.3-12.3 15.4 -5 4.1-10.7 7-16.8 9.1 -6.3 2-12.2 3-18.2 3h-36.8V133h0V133.1zM375.2 215.7c5.5 0 10.7-0.7 15.6-2s9.1-3.2 12.7-5.9 6.4-6.1 8.6-10.4 3.2-9.3 3.2-15.4c0-5.9-0.9-11.1-2.9-15.4 -1.8-4.3-4.5-7.7-7.7-10.4s-7.2-4.6-11.6-5.9 -9.5-2-14.8-2h-16.1v66.9h13.1v0.5H375.2z"/>
    <path id="E" d="M450.1 133.1h65.3V149h-47.7v24.1h45.2V189h-45.2v26.6h50.2v15.9h-67.8L450.1 133.1 450.1 133.1z"/>
  </g>
</svg>
