<?xml version="1.0" encoding="utf-8"?>
<!-- Generator: Adobe Illustrator 18.1.0, SVG Export Plug-In . SVG Version: 6.00 Build 0)  -->
<!DOCTYPE svg PUBLIC "-//W3C//DTD SVG 1.1//EN" "http://www.w3.org/Graphics/SVG/1.1/DTD/svg11.dtd">
<svg version="1.1" xmlns="http://www.w3.org/2000/svg" xmlns:xlink="http://www.w3.org/1999/xlink" x="0px" y="0px"
	 viewBox="0 0 480 480" enable-background="new 0 0 480 480" xml:space="preserve">
<g id="sprocket">
	<g>
		<g>
			<path opacity="0.25" fill="#303030" d="M469,227.7c-0.2-12-4.5-17.3-16.1-20.9c-11.6-3.6-23.1-7.4-34.7-11
				c-3.1-0.9-4.5-2.5-5.6-5.5c-2.4-6.7-5.2-13.3-8.3-19.8c-1.4-3-1.5-5.4,0.1-8.3c6-11.1,11.7-22.4,17.6-33.6
				c4-7.7,3.9-15.4-2.1-21.8c-10.1-10.8-20.4-21.4-31.1-31.7c-7.5-7.3-14.5-7.9-23.8-3.2c-11.4,5.8-22.7,11.8-34.3,17.5
				c-1.8,0.9-4.5,0.9-6.4,0.2c-7.3-2.7-14.6-5.7-21.7-8.9c-1.8-0.8-3.9-2.7-4.5-4.5c-4.2-12.4-8.2-25-12.1-37.5
				c-2.7-8.6-9-13.7-18-13.8c-14.1-0.2-28.3-0.2-42.4,0c-10.9,0.2-16.9,4.9-20.1,15.3c-3.7,11.9-7.5,23.8-11.1,35.7
				c-0.8,2.8-2.3,4.3-5.1,5.3c-7,2.5-13.8,5.8-20.8,8.3c-2.2,0.8-5.3,0.8-7.3-0.2c-11.4-5.5-22.5-11.5-33.8-17.2
				c-3.1-1.5-6.5-2.3-10.6-3.6c-3.6,1.7-8.2,2.6-11.2,5.3c-10.9,10.2-21.5,20.9-31.9,31.7c-7.2,7.4-7.4,15.9-2.5,24.8
				c5.8,10.8,11.5,21.8,17,32.8c0.9,1.9,0.9,4.8,0.1,6.8c-2.6,7.2-5.6,14.2-8.8,21.2c-0.9,1.9-2.9,4-4.9,4.7
				c-12,4.1-24,7.8-36.1,11.7c-10.4,3.4-14.9,8.9-15,19.7c-0.2,13.6-0.2,27.3,0,40.9c0.2,11.2,4.8,17,15.6,20.4
				c11.7,3.7,23.5,7.4,35.3,10.9c3,0.9,4.6,2.5,5.7,5.5c2.5,6.9,5.8,13.5,8.2,20.3c0.8,2.2,0.9,5.3-0.1,7.2
				c-5.7,11.7-11.7,23.2-17.7,34.7c-4.2,8.2-3.5,15.9,2.8,22.5c9.8,10.2,19.8,20.3,30,30c8.1,7.7,15.1,8.4,25,3.3
				c11.1-5.7,22.1-11.6,33.3-17.1c2-1,5.1-1,7.3-0.2c7,2.5,14,5.4,20.7,8.6c2.1,1,4.3,3.1,5,5.2c4.1,12.1,7.8,24.4,11.7,36.6
				c2.9,9,8.7,14,17.8,14.2c14.6,0.3,29.3,0.3,43.9-0.1c10.5-0.3,15.6-4.7,18.9-14.7c3.9-12.2,7.7-24.4,11.8-36.5
				c0.7-2,2.8-4,4.7-4.9c6.3-3,12.9-5.3,19.2-8.3c3.2-1.5,5.6-1.6,8.8,0.1c11.1,6,22.4,11.7,33.7,17.5c8.4,4.3,16.3,3.6,23.1-2.9
				c10.7-10.3,21.2-20.8,31.3-31.5c6.3-6.6,6.7-13.5,2.6-21.6c-6-11.7-12.1-23.3-17.9-35.1c-0.9-1.9-0.9-4.8-0.1-6.8
				c2.6-7,5.4-14,8.6-20.7c1-2.1,3.1-4.3,5.2-5c12.3-4.2,24.7-7.9,37.1-11.8c8.9-2.9,13.8-9.1,14-18.5
				C469.2,255.3,469.2,241.5,469,227.7z M246.8,359.8c-62.8,0-112.9-49.9-112.8-112.5c0.1-62.4,50.2-112,113.3-111.9
				c61.5,0.1,111.2,50.7,111.1,113.2C358.3,309.5,307.8,359.8,246.8,359.8z"/>
			<path fill="#303030" d="M463,220.7c-0.2-12-4.5-17.3-16.1-20.9c-11.6-3.6-23.1-7.4-34.7-11c-3.1-0.9-4.5-2.5-5.6-5.5
				c-2.4-6.7-5.2-13.3-8.3-19.8c-1.4-3-1.5-5.4,0.1-8.3c6-11.1,11.7-22.4,17.6-33.6c4-7.7,3.9-15.4-2.1-21.8
				c-10.1-10.8-20.4-21.4-31.1-31.7c-7.5-7.3-14.5-7.9-23.8-3.2c-11.4,5.8-22.7,11.8-34.3,17.5c-1.8,0.9-4.5,0.9-6.4,0.2
				c-7.3-2.7-14.6-5.7-21.7-8.9c-1.8-0.8-3.9-2.7-4.5-4.5c-4.2-12.4-8.2-25-12.1-37.5c-2.7-8.6-9-13.7-18-13.8
				c-14.1-0.2-28.3-0.2-42.4,0c-10.9,0.2-16.9,4.9-20.1,15.3c-3.7,11.9-7.5,23.8-11.1,35.7c-0.8,2.8-2.3,4.3-5.1,5.3
				c-7,2.5-13.8,5.8-20.8,8.3c-2.2,0.8-5.3,0.8-7.3-0.2c-11.4-5.5-22.5-11.5-33.8-17.2c-3.1-1.5-6.5-2.3-10.6-3.6
				c-3.6,1.7-8.2,2.6-11.2,5.3C88.6,77.1,78.1,87.7,67.7,98.5c-7.2,7.4-7.4,15.9-2.5,24.8c5.8,10.8,11.5,21.8,17,32.8
				c0.9,1.9,0.9,4.8,0.1,6.8c-2.6,7.2-5.6,14.2-8.8,21.2c-0.9,1.9-2.9,4-4.9,4.7c-12,4.1-24,7.8-36.1,11.7
				c-10.4,3.4-14.9,8.9-15,19.7c-0.2,13.6-0.2,27.3,0,40.9c0.2,11.2,4.8,17,15.6,20.4c11.7,3.7,23.5,7.4,35.3,10.9
				c3,0.9,4.6,2.5,5.7,5.5c2.5,6.9,5.8,13.5,8.2,20.3c0.8,2.2,0.9,5.3-0.1,7.2c-5.7,11.7-11.7,23.2-17.7,34.7
				c-4.2,8.2-3.5,15.9,2.8,22.5c9.8,10.2,19.8,20.3,30,30c8.1,7.7,15.1,8.4,25,3.3c11.1-5.7,22.1-11.6,33.3-17.1c2-1,5.1-1,7.3-0.2
				c7,2.5,14,5.4,20.7,8.6c2.1,1,4.3,3.1,5,5.2c4.1,12.1,7.8,24.4,11.7,36.6c2.9,9,8.7,14,17.8,14.2c14.6,0.3,29.3,0.3,43.9-0.1
				c10.5-0.3,15.6-4.7,18.9-14.7c3.9-12.2,7.7-24.4,11.8-36.5c0.7-2,2.8-4,4.7-4.9c6.3-3,12.9-5.3,19.2-8.3c3.2-1.5,5.6-1.6,8.8,0.1
				c11.1,6,22.4,11.7,33.7,17.5c8.4,4.3,16.3,3.6,23.1-2.9c10.7-10.3,21.2-20.8,31.3-31.5c6.3-6.6,6.7-13.5,2.6-21.6
				c-6-11.7-12.1-23.3-17.9-35.1c-0.9-1.9-0.9-4.8-0.1-6.8c2.6-7,5.4-14,8.6-20.7c1-2.1,3.1-4.3,5.2-5c12.3-4.2,24.7-7.9,37.1-11.8
				c8.9-2.9,13.8-9.1,14-18.5C463.2,248.3,463.2,234.5,463,220.7z M240.8,352.8c-62.8,0-112.9-49.9-112.8-112.5
				c0.1-62.4,50.2-112,113.3-111.9c61.5,0.1,111.2,50.7,111.1,113.2C352.3,302.5,301.8,352.8,240.8,352.8z"/>
			<path fill="#808080" d="M238.6,466.5c-6.5,0-13.2-0.1-20.5-0.2c-10.1-0.2-17.2-5.8-20.6-16.3c-1.3-4.1-2.6-8.1-3.9-12.2
				c-2.5-8-5.1-16.3-7.9-24.3c-0.4-1.2-2-2.8-3.4-3.5c-6.7-3.2-13.6-6-20.4-8.5c-1.4-0.5-3.8-0.5-4.9,0.1
				c-7.5,3.7-15.1,7.6-22.4,11.5c-3.6,1.9-7.2,3.8-10.8,5.6c-4.8,2.5-8.8,3.6-12.7,3.6c-5.5,0-10.5-2.4-15.8-7.4
				c-9.4-9-19.3-18.8-30.1-30.1c-7.1-7.4-8.3-16.4-3.3-26c1.4-2.7,2.8-5.4,4.2-8.1c4.5-8.7,9.1-17.6,13.4-26.5
				c0.5-1.1,0.5-3.4-0.1-4.9c-1.2-3.5-2.7-6.9-4.2-10.3c-1.4-3.2-2.8-6.6-4.1-10c-0.8-2.2-1.7-3-3.7-3.6c-9.2-2.7-18.6-5.7-27.6-8.5
				c-2.6-0.8-5.1-1.6-7.7-2.4c-12.1-3.8-17.5-10.9-17.7-23.2c-0.2-13.4-0.2-27.2,0-41c0.2-12,5.3-18.7,17.1-22.5
				c3.5-1.1,7-2.2,10.5-3.3c8.4-2.7,17-5.4,25.5-8.3c1.1-0.4,2.6-1.8,3.2-3.1c3.2-6.8,6.1-13.9,8.7-20.9c0.5-1.4,0.5-3.4,0-4.5
				c-4.9-9.9-10.3-20.3-16.9-32.7c-5.7-10.6-4.6-20.4,3-28.3c9.2-9.6,20.2-20.8,32-31.8c2.5-2.3,5.7-3.5,8.6-4.5
				c1.2-0.4,2.4-0.8,3.4-1.3l1.1-0.5l1.1,0.4c1.3,0.4,2.6,0.8,3.8,1.2c2.5,0.8,4.9,1.5,7.2,2.6c5,2.5,10,5.1,14.9,7.6
				c6.2,3.2,12.6,6.5,18.9,9.6c1.1,0.5,3.5,0.6,5,0c3.5-1.2,6.9-2.7,10.3-4.1c3.4-1.4,6.9-2.9,10.5-4.2c2-0.7,2.7-1.5,3.3-3.4
				c2.7-9,5.6-18.2,8.4-27c0.9-2.9,1.8-5.8,2.7-8.7c3.7-11.8,10.8-17.2,22.9-17.4c6.9-0.1,14.1-0.2,21.5-0.2c6.7,0,13.6,0,21,0.1
				c10.1,0.1,17.7,5.9,20.9,15.9l0.7,2.3c3.6,11.5,7.4,23.5,11.4,35.1c0.3,0.9,1.7,2.2,2.9,2.8c7.1,3.2,14.3,6.2,21.5,8.8
				c1.1,0.4,3.1,0.4,4,0c7.7-3.8,15.5-7.8,23-11.7c3.7-1.9,7.4-3.8,11.2-5.7c4.4-2.3,8.4-3.4,12-3.4c5.3,0,10.3,2.3,15.2,7
				c10.5,10.2,21,20.9,31.2,31.8c6.5,7,7.4,16,2.6,25.2c-1.7,3.2-3.3,6.4-5,9.7c-4.1,7.9-8.3,16-12.6,24c-1.1,2-1.1,3.3,0,5.6
				c3.2,6.8,6,13.5,8.4,20c0.8,2.2,1.6,3.1,3.6,3.7c7.4,2.2,14.9,4.6,22.1,6.9c4.2,1.4,8.4,2.7,12.7,4c13.1,4.1,18,10.5,18.2,23.8
				c0.2,12.6,0.2,26.1-0.1,41.5c-0.2,10.6-5.7,18-16.1,21.3c-4.5,1.5-9.1,2.9-13.6,4.3c-7.7,2.4-15.7,4.9-23.4,7.5
				c-1.2,0.4-2.7,2-3.4,3.5c-3,6.4-5.9,13.3-8.5,20.5c-0.5,1.4-0.5,3.4,0,4.5c4,8.2,8.2,16.4,12.3,24.3c1.9,3.6,3.7,7.2,5.5,10.8
				c4.9,9.5,3.9,17.7-3.1,25c-10.1,10.7-20.7,21.3-31.4,31.6c-4.4,4.3-9.5,6.4-15,6.4l0,0c-3.7,0-7.6-1-11.5-3l-1.2-0.6
				c-10.7-5.5-21.8-11.1-32.5-16.9c-2.2-1.2-3.5-1.2-6,0c-3.3,1.6-6.7,3-9.9,4.3c-3.1,1.3-6.3,2.6-9.3,4c-1.4,0.7-2.8,2.1-3.2,3.2
				c-2.9,8.3-5.6,16.9-8.2,25.1c-1.2,3.8-2.4,7.6-3.6,11.3c-3.7,11.5-10.2,16.5-21.6,16.8C254.6,466.4,246.9,466.5,238.6,466.5z
				 M159.5,395.1c1.6,0,3.1,0.3,4.5,0.7c7,2.5,14.1,5.5,21,8.7c2.5,1.2,5.5,3.8,6.5,7c2.8,8.1,5.4,16.4,7.9,24.5
				c1.3,4.1,2.5,8.1,3.8,12.2c2.6,8,7.5,12,15,12.1c7.2,0.1,13.9,0.2,20.4,0.2c8.2,0,15.9-0.1,23.4-0.3c9-0.3,13.2-3.6,16.1-12.7
				c1.2-3.8,2.4-7.5,3.6-11.3c2.6-8.3,5.4-16.9,8.2-25.3c1-3,3.9-5.5,6.3-6.6c3.2-1.5,6.4-2.9,9.6-4.2c3.2-1.3,6.5-2.7,9.6-4.2
				c2.1-1,3.9-1.5,5.7-1.5c1.9,0,3.8,0.5,5.8,1.6c10.7,5.8,21.8,11.4,32.4,16.9l1.2,0.6c7.4,3.8,14,3,19.6-2.4
				c10.7-10.2,21.2-20.8,31.2-31.4c5.2-5.5,5.8-10.9,2.1-18.2c-1.8-3.6-3.7-7.2-5.5-10.7c-4.1-8-8.4-16.2-12.4-24.5
				c-1.4-2.9-1.1-6.7-0.2-9.2c2.7-7.3,5.6-14.4,8.7-21c1.2-2.5,3.8-5.5,6.9-6.6c7.8-2.7,15.8-5.2,23.6-7.6c4.5-1.4,9-2.8,13.6-4.3
				c7.8-2.5,11.8-7.8,11.9-15.7c0.3-15.3,0.3-28.8,0.1-41.3c-0.2-10.6-3.4-14.8-14-18.1c-4.2-1.3-8.5-2.7-12.7-4
				c-7.2-2.3-14.6-4.7-22-6.9c-3.8-1.2-6.1-3.4-7.5-7.4c-2.3-6.3-5-12.9-8.2-19.5c-1.9-4-1.9-7.3,0.1-11.1c4.3-7.9,8.5-16,12.5-23.9
				c1.7-3.2,3.3-6.5,5-9.7c3.7-7,3.1-13.2-1.7-18.4c-10.1-10.9-20.5-21.5-31-31.6c-3.8-3.6-7.3-5.3-11-5.3c-2.7,0-5.8,0.9-9.3,2.7
				c-3.7,1.9-7.4,3.8-11.2,5.7c-7.6,3.9-15.4,7.9-23.1,11.7c-1.6,0.8-3.4,1-4.6,1c-1.5,0-2.9-0.2-4.1-0.7c-7.3-2.7-14.6-5.7-21.9-9
				c-2.3-1.1-5.1-3.4-6.1-6.3c-4-11.7-7.8-23.7-11.4-35.3l-0.7-2.3c-2.4-7.5-7.6-11.6-15.2-11.7c-7.4-0.1-14.2-0.1-20.9-0.1
				c-7.4,0-14.6,0.1-21.4,0.2c-9.5,0.2-14.4,3.9-17.3,13.2c-0.9,2.9-1.8,5.8-2.7,8.7c-2.8,8.8-5.7,18-8.4,27c-1.1,3.7-3.2,5.9-7,7.3
				c-3.4,1.2-6.9,2.7-10.2,4.1c-3.4,1.5-7,3-10.6,4.2c-1.4,0.5-3,0.8-4.6,0.8c-1.3,0-3.2-0.2-5-1c-6.4-3.1-12.9-6.4-19.1-9.6
				c-4.8-2.5-9.8-5.1-14.8-7.5c-1.8-0.9-3.9-1.5-6.3-2.2c-0.9-0.3-1.9-0.6-2.9-0.9c-0.9,0.4-1.8,0.7-2.7,1c-2.6,0.9-5,1.8-6.5,3.3
				c-11.6,10.9-22.6,22-31.7,31.5c-5.8,6.1-6.5,13-2.1,21.3c6.7,12.5,12.1,22.9,17,32.9c1.4,2.9,1.1,6.8,0.2,9.2
				c-2.7,7.2-5.7,14.4-8.9,21.4c-1.3,2.8-4,5.3-6.7,6.2c-8.5,2.9-17.2,5.7-25.6,8.3c-3.5,1.1-7,2.2-10.5,3.3
				c-9.3,3-12.8,7.6-12.9,16.9c-0.2,13.8-0.2,27.5,0,40.8c0.1,9.8,3.8,14.5,13.5,17.6c2.6,0.8,5.1,1.6,7.7,2.4
				c9,2.8,18.3,5.8,27.5,8.5c3.9,1.2,6.2,3.3,7.6,7.3c1.2,3.3,2.6,6.5,4,9.7c1.5,3.4,3,7,4.3,10.6c0.9,2.6,1.3,6.6-0.2,9.6
				c-4.3,9-9,18-13.5,26.7c-1.4,2.7-2.8,5.4-4.2,8.1c-3.8,7.3-3,13.5,2.3,19.1c10.8,11.2,20.6,21,29.9,29.9c4.2,4,7.8,5.8,11.7,5.8
				c2.9,0,6-0.9,9.9-2.9c3.6-1.9,7.2-3.7,10.8-5.6c7.4-3.8,15-7.8,22.6-11.5C156.1,395.3,158.1,395.1,159.5,395.1z M240.9,355.8
				c-31.3,0-60.4-12-82.2-33.7c-21.8-21.7-33.7-50.8-33.7-81.8c0-31,12.1-59.9,33.9-81.5c21.8-21.6,51-33.4,82.3-33.4h0.1
				c30.5,0,59.2,12.1,80.8,34.1c21.5,21.9,33.4,51.1,33.3,82.1c0,30.2-12.1,58.9-33.8,80.6C299.8,343.9,271.2,355.8,240.9,355.8z
				 M241.2,131.4c-29.7,0-57.4,11.3-78.1,31.7c-20.7,20.4-32.1,47.9-32.1,77.2c0,29.4,11.3,57,31.9,77.6
				c20.6,20.6,48.3,31.9,77.9,31.9c28.8,0,55.9-11.3,76.5-31.9c20.6-20.6,32-47.7,32.1-76.3c0-29.4-11.2-57.1-31.6-77.9
				c-20.4-20.8-47.6-32.3-76.5-32.3H241.2z"/>
		</g>
		<g opacity="0.25">
			<path fill="#303030" d="M245.4,163.8l-12-5.5l-10.5,8.1l-13.1-1.9l-7.8,10.7l-13.1,1.9l-4.5,12.4l-12,5.5l-0.8,13.2l-10,8.6
				l3,12.9l-7.1,11.1l6.5,11.5l-3.7,12.7l9.5,9.2l0.1,13.2l11.7,6.1l3.8,12.7l13,2.6l7.2,11.1l13.2-1.1l10,8.6l12.3-4.8l12,5.5
				l10.4-8.1l13,1.8l7.6-10.7l13-1.9l4.4-12.4l12-5.4l0.8-13.1l10-8.5l-2.9-12.8l7.1-11l-6.5-11.5l3.7-12.7l-9.4-9.2l0-13.2
				l-11.7-6.2l-3.7-12.7l-12.9-2.7l-7.1-11.1l-13.2,1.1l-10-8.7L245.4,163.8z M241.6,301.9l-7.3-6.7l-9.2,3.9l-5.1-8.5l-9.9,1.1
				l-2.5-9.6l-9.8-1.6l0.2-9.9l-9-4.3l3-9.5l-7.4-6.6l5.6-8.2l-5.2-8.5l7.7-6.2l-2.5-9.6l9.2-3.8l0.3-9.9l9.9-1.1l3-9.5l9.8,1.7
				l5.5-8.3l8.9,4.4l7.7-6.3l7.3,6.8l9.2-3.8l5,8.6l9.9-1.1l2.4,9.6l9.8,1.7l-0.3,9.9l9,4.3l-3.1,9.5l7.3,6.7l-5.7,8.2l5.1,8.5
				l-7.8,6.1l2.5,9.6l-9.2,3.7l-0.2,9.9l-9.8,1.1l-2.9,9.5l-9.7-1.6l-5.4,8.3l-8.9-4.3L241.6,301.9z"/>
		</g>
		<g>
			<path fill="#303030" d="M242.7,159.9l-12.2-5.5l-10.7,8.1l-13.3-1.8l-7.9,10.8l-13.2,2l-4.6,12.6l-12.1,5.6l-0.9,13.4l-10.1,8.8
				l2.9,13.1l-7.1,11.3l6.5,11.7l-3.6,12.9l9.6,9.4l0.2,13.4l11.8,6.3l3.9,12.8l13.1,2.7l7.3,11.2l13.3-1.1l10.2,8.7l12.5-4.8
				l12.1,5.4l10.5-8.1l13.2,1.8l7.8-10.8l13.2-2l4.5-12.5l12.1-5.5l0.9-13.3l10.1-8.7l-2.9-13l7.1-11.2l-6.5-11.7l3.7-12.9l-9.5-9.4
				l-0.1-13.4l-11.8-6.4l-3.8-12.8l-13.1-2.8l-7.3-11.2l-13.3,1l-10.2-8.7L242.7,159.9z M238.8,300.1l-7.4-6.8l-9.3,3.9l-5.2-8.6
				l-10,1.1l-2.6-9.7l-9.9-1.7l0.2-10l-9-4.4l3-9.6l-7.4-6.8l5.6-8.3l-5.1-8.6l7.8-6.4l-2.5-9.7l9.3-3.9l0.4-10l10-1.2l3.1-9.6
				l9.9,1.6l5.7-8.3l9,4.4l7.8-6.3l7.4,6.8l9.3-3.8l5.1,8.6l10-1l2.5,9.7l9.9,1.8l-0.2,10l9,4.4l-3,9.6l7.4,6.8l-5.7,8.3l5.1,8.6
				l-7.8,6.2l2.4,9.7l-9.2,3.8l-0.3,10l-9.9,1.2l-3,9.5l-9.9-1.6l-5.5,8.3l-9-4.3L238.8,300.1z"/>
		</g>
		<g opacity="0.26">
			<path fill="#303030" d="M245,156.8c-48.5-0.4-88.3,38.8-88.6,87.2c-0.3,48.4,38.9,88,87.4,88.4c47.7,0.3,87.8-39.1,88.1-86.7
				C332.3,197,293.4,157.2,245,156.8z M244.1,311.8c-36.8-0.2-67.3-30.9-67-67.6c0.2-36.8,31.2-67.3,67.8-66.8
				c36.8,0.5,67.3,31.6,66.6,68C310.8,281.7,280.1,312,244.1,311.8z"/>
		</g>
		<g>
			<path fill="#BFBFBF" d="M241,152.8c-48.5-0.4-88.3,38.8-88.6,87.2c-0.3,48.4,38.9,88,87.4,88.4c47.7,0.3,87.8-39.1,88.1-86.7
				C328.3,193,289.4,153.2,241,152.8z M240.1,307.8c-36.8-0.2-67.3-30.9-67-67.6c0.2-36.8,31.2-67.3,67.8-66.8
				c36.8,0.5,67.3,31.6,66.6,68C306.8,277.7,276.1,308,240.1,307.8z"/>
		</g>
		<g>
			<path fill="#8F8F8F" d="M240.9,170.2c-38.9-0.3-70.8,31.1-71.1,69.9c-0.2,38.8,31.2,70.6,70.1,70.9c38.3,0.3,70.4-31.3,70.7-69.5
				C310.8,202.4,279.6,170.5,240.9,170.2z M240.1,304.6c-35-0.2-64-29.4-63.8-64.3c0.2-35,29.6-64,64.5-63.6c35,0.4,64,30,63.4,64.7
				C303.6,275.9,274.3,304.8,240.1,304.6z"/>
		</g>
		<g>
			<path fill="#8F8F8F" d="M241.1,151.2c-49.4-0.4-90,39.6-90.3,88.8c-0.3,49.3,39.7,89.7,89.1,90c48.6,0.3,89.4-39.8,89.8-88.3
				C330,192.1,290.3,151.6,241.1,151.2z M240,325.3c-46.4-0.3-84.7-38.9-84.5-85.2c0.3-46.3,39.2-84.7,85.4-84.2
				c46.4,0.6,84.7,39.8,83.9,85.7C324.1,287.4,285.4,325.5,240,325.3z"/>
		</g>
		<path fill="#BFBFBF" d="M241.4,115c-69.3-0.6-126.4,55.6-126.8,124.7c-0.4,69.3,55.7,125.9,125.1,126.4
			c68.3,0.5,125.6-55.9,126-124C366.2,172.5,310.6,115.6,241.4,115z M240,355.1c-62.7-0.4-114.5-52.6-114.2-115.1
			c0.4-62.6,53.1-114.6,115.4-113.8c62.7,0.8,114.5,53.7,113.5,115.8C353.6,303.8,301.3,355.4,240,355.1z"/>
	</g>
</g>
<g id="Layer_3">
	<g>
		<polygon fill="#FFFFFF" points="118.6,200 102.3,183.7 44.9,240.7 103.1,298.6 119.4,282.3 78.3,240.7 		"/>
		<path fill="#FFFFFF" d="M174.9,203.4h-22.1c-8.8,0-16.5,3.2-22.7,9.4c-6.2,6.2-9.4,13.9-9.4,22.7v13.5c0,8.8,3.2,16.5,9.4,22.7
			c6.2,6.2,13.9,9.4,22.7,9.4h45.6V176.3h-23.5V203.4z M174.9,257.6h-22.1c-2.4,0-4.3-0.8-6-2.5c-1.7-1.7-2.5-3.6-2.5-6v-13.5
			c0-2.4,0.8-4.3,2.5-6c1.7-1.7,3.6-2.5,6-2.5h22.1V257.6z"/>
		<path fill="#FFFFFF" d="M247.6,203.4h-13.5c-8.8,0-16.5,3.2-22.7,9.4c-6.2,6.2-9.4,13.9-9.4,22.7v13.5c0,8.8,3.2,16.5,9.4,22.7
			c6.2,6.2,13.9,9.4,22.7,9.4h45.6v-23.5h-45.6c-2.4,0-4.3-0.8-6-2.5c-0.3-0.3-0.6-0.7-0.9-1h52.5v-18.5c0-8.7-3.2-16.4-9.5-22.6
			C264,206.6,256.4,203.4,247.6,203.4z M228.1,229.5c1.7-1.7,3.6-2.5,6-2.5h13.5c2.4,0,4.3,0.8,6,2.5c0.3,0.3,0.6,0.7,0.9,1h-27.4
			C227.4,230.2,227.7,229.8,228.1,229.5z"/>
		<polygon fill="#FFFFFF" points="337.4,217.3 322.1,247.9 306.8,217.3 306.8,203.4 283.3,203.4 283.3,223.1 312.3,281.1 332,281.1 
			361,223.1 361,203.4 337.4,203.4 		"/>
		<polygon fill="#FFFFFF" points="379,182.9 362.7,199.2 403.9,240.7 363.5,281.4 379.8,297.8 437.2,240.7 		"/>
	</g>
	<g>
		<path fill="#EF473A" d="M111.9,282.2l-9.3,9.3l-51.1-50.8l50.3-50l9.3,9.3l-40.3,40.7L111.9,282.2z"/>
		<path fill="#EF473A" d="M193,276.1h-40.6c-7.5,0-13.9-2.6-19.2-7.9c-5.3-5.3-7.9-11.7-7.9-19.2v-13.5c0-7.5,2.6-13.9,7.9-19.2
			c5.3-5.3,11.7-7.9,19.2-7.9h27.1v-27.1H193V276.1z M179.4,262.6V222h-27.1c-3.7,0-6.9,1.3-9.5,4c-2.7,2.7-4,5.8-4,9.5v13.5
			c0,3.7,1.3,6.9,4,9.5c2.7,2.7,5.8,4,9.5,4H179.4z"/>
		<path fill="#EF473A" d="M274.3,276.1h-40.6c-7.5,0-13.9-2.6-19.2-7.9c-5.3-5.3-7.9-11.7-7.9-19.2v-13.5c0-7.5,2.6-13.9,7.9-19.2
			c5.3-5.3,11.7-7.9,19.2-7.9h13.5c7.4,0,13.8,2.7,19.1,8c5.3,5.3,8,11.7,8,19.1v13.5h-54.2c0,3.7,1.3,6.9,4,9.5
			c2.7,2.7,5.8,4,9.5,4h40.6V276.1z M260.7,235.5c0-3.7-1.3-6.9-4-9.5c-2.7-2.7-5.8-4-9.5-4h-13.5c-3.7,0-6.9,1.3-9.5,4
			c-2.7,2.7-4,5.8-4,9.5H260.7z"/>
		<path fill="#EF473A" d="M355.5,222l-27.1,54.2h-13.5L287.8,222v-13.5h13.5v10l20.3,40.6l20.3-40.6v-10h13.5V222z"/>
		<path fill="#EF473A" d="M429.7,240.7l-50.3,50l-9.3-9.3l40.3-40.7l-41.2-41.5l9.3-9.3L429.7,240.7z"/>
	</g>
</g>
</svg>
