<?xml version="1.0" encoding="utf-8"?>
<!-- Generator: Adobe Illustrator 18.1.0, SVG Export Plug-In . SVG Version: 6.00 Build 0)  -->
<!DOCTYPE svg PUBLIC "-//W3C//DTD SVG 1.1//EN" "http://www.w3.org/Graphics/SVG/1.1/DTD/svg11.dtd">
<svg version="1.1" id="meteor" xmlns="http://www.w3.org/2000/svg" xmlns:xlink="http://www.w3.org/1999/xlink" x="0px" y="0px"
	 viewBox="0 0 598.6 123.7" style="enable-background:new 0 0 598.6 123.7;" xml:space="preserve">
<style type="text/css">
	.st0{fill:#DE4F4F;}
</style>
<path id="R" d="M578.1,91.2c0,0,1.7-1.1,2.2-1.4c13.7-7.3,19.2-19,15.9-34.2c-2.7-12.4-13.6-21.2-27.8-21.5
	c-14.3-0.4-45.2-0.1-45.2-0.1s0,58.8,0,88c6.5,0,12.6,0,19.4,0c0-9.5,0-18.7,0-28.1c3.7,0,14.8-0.1,14.8-0.1l20.5,28.3
	c0,0,14.2,0,20.7-0.1C598.6,121.4,578.1,91.2,578.1,91.2z M577.3,64.6c-0.3,6-4.3,11.9-10.3,12.6c-8,0.9-24.3,0.1-24.3,0.1V50.9
	c0,0,16.9-0.5,25.6,0.9C573.8,52.6,577.5,58.9,577.3,64.6z"/>
<g id="O" class="animated zoomInDown">
	<path class="st0" d="M468.9,112.7c-17.1-15.6-34.1-31.4-51.1-47c-12.1-11.2-24.3-22.4-36.4-33.5c26.3,29.2,53,58.1,79.6,87
		c1.1,1.2,6.4,7,10.2,3.2C474,119.5,472.4,115.9,468.9,112.7z"/>
	<path class="st0" d="M447.5,115.7c-13.2-12-26.2-24.1-39.3-36.2c-4.4-4.1-8.8-8.1-13.2-12.2c15.1,17.3,30.7,34.2,46.2,51
		c3.9,3.9,6.5,6.6,8.4,4.7S450,117.9,447.5,115.7z"/>
	<path class="st0" d="M486.6,103.1c-28.1-26.5-56.2-52.9-84.3-79.4C393.9,15.8,385.5,7.9,377,0c-0.2,0.2-0.3,0.3-0.5,0.5
		c0.4,0.5,0.7,1,1.1,1.4c31,33,62.1,65.9,93.1,98.8c3.5,3.8,6.8,7.9,10.8,11.1c1.7,1.3,5.2,2.8,7.3,0.7s2.2-5.2-0.3-7.7
		C487.9,104.2,487.2,103.7,486.6,103.1z"/>
	<path class="st0" d="M496.4,86.2c-29.5-27.2-59-54.5-88.5-81.7c-0.1,0.1-0.1,0.3-0.2,0.4c24.5,26.5,49.1,53.1,73.6,79.6
		c3.3,3.5,6.3,7.4,10,10.4c1.4,1.2,4.6,2.2,6.4,0.4c1.8-1.8,2.9-3.9,0.6-7C497.9,87.8,497.1,86.9,496.4,86.2z"/>
	<path class="st0" d="M500.1,70.1c-17.2-16.2-34.6-32.2-51.9-48.3c-0.2,0.2-0.5,0.4-0.7,0.7c16.3,17.6,32.5,35.2,48.9,52.7
		c0.9,0.9,3.1,2.2,4.7,0.7C502.6,74.2,502.2,71.9,500.1,70.1z"/>
	<path class="st0" d="M407.4,96c6.1,7.4,12.1,14.8,19.1,21.2c0.4,0.2,1,1,1.7,0c0.7-1,0.3-1.3,0-1.7
		C421.3,108.9,414.3,102.5,407.4,96z"/>
	<path class="st0" d="M497,53.1c0.9-0.9-0.3-1.5,0-1.9c-6.8-6.4-13.7-12.9-20.5-19.3c-0.2,0.1-0.4,0.3-0.6,0.4
		c6.4,6.9,12.8,13.8,19.2,20.7C495.4,52.9,496,54.1,497,53.1z"/>
</g>
<path id="E2" d="M321.1,86.2c14,0,27.5,0,41.1,0c0-6,0-11.4,0-17.3c-13.9,0-27.5,0-41.2,0c0-6.1,0-11.6,0-17.9c15.7,0,31.1,0,46.7,0
	c0-5.9,0-11.2,0-16.6c-22.4,0-44.1,0-65.6,0c0,29.5,0,58.5,0,87.6c22.3,0,44.2,0,66.3,0c0-5.8,0-11.1,0-17.2c-16,0-31.7,0-47.3,0
	C321.1,98.3,321.1,92.6,321.1,86.2z"/>
<path id="T" d="M204.2,34.3c0,6.2,0,11.7,0,17.8c9,0,17.5,0,26.6,0c0,23.6,0,46.7,0,69.9c6.6,0,12.6,0,19.4,0
	c0-23.5-0.1-46.5-0.1-70.1c8,0,26.9,0,26.9,0s0-12.6,0-17.7C252.1,34.3,228.2,34.3,204.2,34.3z"/>
<path id="E1" d="M132,86.4c13.8,0,27.5,0,41.2,0c0-6.2,0-11.6,0-17.4c-13.9,0-27.5,0-41.3,0c0-5.9,0-11.4,0-17.9c16,0,31.5,0,47.2,0
	c0-5.9,0-11.2,0-16.7c-22.2,0-44,0-66.2,0c0,29.3,0,58.4,0,87.7c22.3,0,44.3,0,66.5,0c0-5.8,0-11.2,0-17.1c-15.9,0-31.5,0-47.3,0
	C132,98.7,132,92.9,132,86.4z"/>
<path id="M" d="M67.1,34.3L44,71L19.6,34.3L0,34.1c0,0,0,58.9,0,87.9c6.3,0,12.2,0,18.9,0c0-18.6,0-55.1,0-55.1l24.9,35.9l25.3-35.9
	c0,0,0,36.5,0,55c6.6,0,12.8,0,19,0c0-29.4,0-87.9,0-87.9L67.1,34.3z"/>
</svg>
